<svg width="624" height="200" viewBox="0 0 624 200" fill="none" xmlns="http://www.w3.org/2000/svg">
<path d="M130.936 153.765C103.854 143.887 69.7118 126.776 60.8377 101.35L81.7571 94.0488C86.3131 107.105 107.535 121.651 138.528 132.957L130.936 153.765Z" fill="#272560"/>
<path d="M162.704 107.664C151.127 104.544 141.27 100.952 133.023 96.8376C126.729 101.549 118.988 105.847 109.613 108.728C121.735 117.077 137.384 123.789 156.937 129.056L162.704 107.664Z" fill="#272560"/>
<path d="M102.141 175C32.4413 149.926 23.518 100.488 23.1719 98.3952L20.8723 84.486L34.9328 85.543C76.3666 88.6587 106.25 82.7421 121.127 67.2722C127.095 61.0626 127.517 55.8251 128.595 50.8333C72.1923 42.1943 20.0397 55.2132 19.4924 55.3524L14 33.8888C16.5592 33.2305 77.4593 17.1227 142.452 29.9343L153.794 32.334V40.3702C153.794 48.8378 150.256 68.1562 136.998 82.0036C119.551 100.225 90.4704 108.997 50.3968 108.434C57.5522 121.564 73.7763 141.247 109.64 154.155L102.141 175Z" fill="#272560"/>
<path d="M192.61 43.6H200.81V101H192.61V43.6ZM240.053 57.13C245.574 57.13 249.947 58.7427 253.173 61.968C256.453 65.1387 258.093 69.8127 258.093 75.99V101H250.221V76.892C250.221 72.6827 249.209 69.512 247.187 67.38C245.164 65.248 242.267 64.182 238.495 64.182C234.231 64.182 230.869 65.4393 228.409 67.954C225.949 70.414 224.719 73.9673 224.719 78.614V101H216.847V57.54H224.391V64.1C225.976 61.8587 228.108 60.1367 230.787 58.934C233.52 57.7313 236.609 57.13 240.053 57.13ZM291.843 101.492C287.415 101.492 283.452 100.535 279.953 98.622C276.509 96.7087 273.803 94.0847 271.835 90.75C269.867 87.3607 268.883 83.534 268.883 79.27C268.883 75.006 269.867 71.2067 271.835 67.872C273.803 64.4827 276.509 61.8587 279.953 60C283.452 58.0867 287.415 57.13 291.843 57.13C295.779 57.13 299.278 57.9227 302.339 59.508C305.455 61.0933 307.861 63.3893 309.555 66.396L303.569 70.25C302.203 68.1727 300.508 66.6147 298.485 65.576C296.463 64.5373 294.221 64.018 291.761 64.018C288.919 64.018 286.349 64.6467 284.053 65.904C281.812 67.1613 280.035 68.9653 278.723 71.316C277.466 73.612 276.837 76.2633 276.837 79.27C276.837 82.3313 277.466 85.0373 278.723 87.388C280.035 89.684 281.812 91.4607 284.053 92.718C286.349 93.9753 288.919 94.604 291.761 94.604C294.221 94.604 296.463 94.0847 298.485 93.046C300.508 92.0073 302.203 90.4493 303.569 88.372L309.555 92.144C307.861 95.1507 305.455 97.474 302.339 99.114C299.278 100.699 295.779 101.492 291.843 101.492ZM319.747 57.54H327.619V101H319.747V57.54ZM323.683 49.176C322.152 49.176 320.868 48.684 319.829 47.7C318.845 46.716 318.353 45.5133 318.353 44.092C318.353 42.6707 318.845 41.468 319.829 40.484C320.868 39.4453 322.152 38.926 323.683 38.926C325.214 38.926 326.471 39.418 327.455 40.402C328.494 41.3313 329.013 42.5067 329.013 43.928C329.013 45.404 328.494 46.6613 327.455 47.7C326.471 48.684 325.214 49.176 323.683 49.176ZM383.65 40.156V101H376.106V94.112C374.356 96.5173 372.142 98.3487 369.464 99.606C366.785 100.863 363.833 101.492 360.608 101.492C356.398 101.492 352.626 100.563 349.292 98.704C345.957 96.8453 343.333 94.2487 341.42 90.914C339.561 87.5247 338.632 83.6433 338.632 79.27C338.632 74.8967 339.561 71.0427 341.42 67.708C343.333 64.3733 345.957 61.7767 349.292 59.918C352.626 58.0593 356.398 57.13 360.608 57.13C363.724 57.13 366.594 57.7313 369.218 58.934C371.842 60.082 374.028 61.804 375.778 64.1V40.156H383.65ZM361.264 94.604C363.997 94.604 366.484 93.9753 368.726 92.718C370.967 91.406 372.716 89.602 373.974 87.306C375.231 84.9553 375.86 82.2767 375.86 79.27C375.86 76.2633 375.231 73.612 373.974 71.316C372.716 68.9653 370.967 67.1613 368.726 65.904C366.484 64.6467 363.997 64.018 361.264 64.018C358.476 64.018 355.961 64.6467 353.72 65.904C351.533 67.1613 349.784 68.9653 348.472 71.316C347.214 73.612 346.586 76.2633 346.586 79.27C346.586 82.2767 347.214 84.9553 348.472 87.306C349.784 89.602 351.533 91.406 353.72 92.718C355.961 93.9753 358.476 94.604 361.264 94.604ZM437.822 79.516C437.822 80.1173 437.767 80.91 437.658 81.894H402.398C402.89 85.7207 404.557 88.8093 407.4 91.16C410.297 93.456 413.878 94.604 418.142 94.604C423.335 94.604 427.517 92.8547 430.688 89.356L435.034 94.44C433.066 96.736 430.606 98.4853 427.654 99.688C424.757 100.891 421.504 101.492 417.896 101.492C413.304 101.492 409.231 100.563 405.678 98.704C402.125 96.7907 399.364 94.1393 397.396 90.75C395.483 87.3607 394.526 83.534 394.526 79.27C394.526 75.0607 395.455 71.2613 397.314 67.872C399.227 64.4827 401.824 61.8587 405.104 60C408.439 58.0867 412.183 57.13 416.338 57.13C420.493 57.13 424.183 58.0867 427.408 60C430.688 61.8587 433.23 64.4827 435.034 67.872C436.893 71.2613 437.822 75.1427 437.822 79.516ZM416.338 63.772C412.566 63.772 409.395 64.92 406.826 67.216C404.311 69.512 402.835 72.5187 402.398 76.236H430.278C429.841 72.5733 428.337 69.594 425.768 67.298C423.253 64.9473 420.11 63.772 416.338 63.772ZM471.959 57.13C477.48 57.13 481.854 58.7427 485.079 61.968C488.359 65.1387 489.999 69.8127 489.999 75.99V101H482.127V76.892C482.127 72.6827 481.116 69.512 479.093 67.38C477.07 65.248 474.173 64.182 470.401 64.182C466.137 64.182 462.775 65.4393 460.315 67.954C457.855 70.414 456.625 73.9673 456.625 78.614V101H448.753V57.54H456.297V64.1C457.882 61.8587 460.014 60.1367 462.693 58.934C465.426 57.7313 468.515 57.13 471.959 57.13ZM529.003 98.458C527.855 99.442 526.434 100.207 524.739 100.754C523.045 101.246 521.295 101.492 519.491 101.492C515.118 101.492 511.729 100.317 509.323 97.966C506.918 95.6153 505.715 92.2533 505.715 87.88V64.018H498.335V57.54H505.715V48.028H513.587V57.54H526.051V64.018H513.587V87.552C513.587 89.9027 514.161 91.7067 515.309 92.964C516.512 94.2213 518.207 94.85 520.393 94.85C522.799 94.85 524.849 94.1667 526.543 92.8L529.003 98.458ZM230.986 158L218.604 140.37C217.073 140.479 215.871 140.534 214.996 140.534H200.81V158H192.61V100.6H214.996C222.431 100.6 228.28 102.377 232.544 105.93C236.808 109.483 238.94 114.376 238.94 120.608C238.94 125.036 237.847 128.808 235.66 131.924C233.473 135.04 230.357 137.309 226.312 138.73L239.924 158H230.986ZM214.75 133.564C219.943 133.564 223.907 132.443 226.64 130.202C229.373 127.961 230.74 124.763 230.74 120.608C230.74 116.453 229.373 113.283 226.64 111.096C223.907 108.855 219.943 107.734 214.75 107.734H200.81V133.564H214.75ZM290.318 136.516C290.318 137.117 290.263 137.91 290.154 138.894H254.894C255.386 142.721 257.053 145.809 259.896 148.16C262.793 150.456 266.374 151.604 270.638 151.604C275.831 151.604 280.013 149.855 283.184 146.356L287.53 151.44C285.562 153.736 283.102 155.485 280.15 156.688C277.253 157.891 274 158.492 270.392 158.492C265.8 158.492 261.727 157.563 258.174 155.704C254.621 153.791 251.86 151.139 249.892 147.75C247.979 144.361 247.022 140.534 247.022 136.27C247.022 132.061 247.951 128.261 249.81 124.872C251.723 121.483 254.32 118.859 257.6 117C260.935 115.087 264.679 114.13 268.834 114.13C272.989 114.13 276.679 115.087 279.904 117C283.184 118.859 285.726 121.483 287.53 124.872C289.389 128.261 290.318 132.143 290.318 136.516ZM268.834 120.772C265.062 120.772 261.891 121.92 259.322 124.216C256.807 126.512 255.331 129.519 254.894 133.236H282.774C282.337 129.573 280.833 126.594 278.264 124.298C275.749 121.947 272.606 120.772 268.834 120.772ZM313.713 158.492C310.16 158.492 306.743 158.027 303.463 157.098C300.183 156.114 297.614 154.884 295.755 153.408L299.035 147.176C300.948 148.543 303.272 149.636 306.005 150.456C308.738 151.276 311.499 151.686 314.287 151.686C321.175 151.686 324.619 149.718 324.619 145.782C324.619 144.47 324.154 143.431 323.225 142.666C322.296 141.901 321.12 141.354 319.699 141.026C318.332 140.643 316.364 140.233 313.795 139.796C310.296 139.249 307.426 138.621 305.185 137.91C302.998 137.199 301.112 135.997 299.527 134.302C297.942 132.607 297.149 130.229 297.149 127.168C297.149 123.232 298.789 120.089 302.069 117.738C305.349 115.333 309.75 114.13 315.271 114.13C318.168 114.13 321.066 114.485 323.963 115.196C326.86 115.907 329.238 116.863 331.097 118.066L327.735 124.298C324.182 122.002 320 120.854 315.189 120.854C311.854 120.854 309.312 121.401 307.563 122.494C305.814 123.587 304.939 125.036 304.939 126.84C304.939 128.261 305.431 129.382 306.415 130.202C307.399 131.022 308.602 131.623 310.023 132.006C311.499 132.389 313.549 132.826 316.173 133.318C319.672 133.919 322.487 134.575 324.619 135.286C326.806 135.942 328.664 137.09 330.195 138.73C331.726 140.37 332.491 142.666 332.491 145.618C332.491 149.554 330.796 152.697 327.407 155.048C324.072 157.344 319.508 158.492 313.713 158.492ZM365.371 114.13C369.581 114.13 373.353 115.059 376.687 116.918C380.022 118.777 382.619 121.373 384.477 124.708C386.391 128.043 387.347 131.897 387.347 136.27C387.347 140.643 386.391 144.525 384.477 147.914C382.619 151.249 380.022 153.845 376.687 155.704C373.353 157.563 369.581 158.492 365.371 158.492C362.255 158.492 359.385 157.891 356.761 156.688C354.192 155.485 352.005 153.736 350.201 151.44V173.908H342.329V114.54H349.873V121.428C351.623 119.023 353.837 117.219 356.515 116.016C359.194 114.759 362.146 114.13 365.371 114.13ZM364.715 151.604C367.503 151.604 369.991 150.975 372.177 149.718C374.419 148.406 376.168 146.602 377.425 144.306C378.737 141.955 379.393 139.277 379.393 136.27C379.393 133.263 378.737 130.612 377.425 128.316C376.168 125.965 374.419 124.161 372.177 122.904C369.991 121.647 367.503 121.018 364.715 121.018C361.982 121.018 359.495 121.674 357.253 122.986C355.067 124.243 353.317 126.02 352.005 128.316C350.748 130.612 350.119 133.263 350.119 136.27C350.119 139.277 350.748 141.955 352.005 144.306C353.263 146.602 355.012 148.406 357.253 149.718C359.495 150.975 361.982 151.604 364.715 151.604ZM416.838 158.492C412.519 158.492 408.638 157.535 405.194 155.622C401.75 153.709 399.044 151.085 397.076 147.75C395.162 144.361 394.206 140.534 394.206 136.27C394.206 132.006 395.162 128.207 397.076 124.872C399.044 121.483 401.75 118.859 405.194 117C408.638 115.087 412.519 114.13 416.838 114.13C421.156 114.13 425.01 115.087 428.4 117C431.844 118.859 434.522 121.483 436.436 124.872C438.404 128.207 439.388 132.006 439.388 136.27C439.388 140.534 438.404 144.361 436.436 147.75C434.522 151.085 431.844 153.709 428.4 155.622C425.01 157.535 421.156 158.492 416.838 158.492ZM416.838 151.604C419.626 151.604 422.113 150.975 424.3 149.718C426.541 148.406 428.29 146.602 429.548 144.306C430.805 141.955 431.434 139.277 431.434 136.27C431.434 133.263 430.805 130.612 429.548 128.316C428.29 125.965 426.541 124.161 424.3 122.904C422.113 121.647 419.626 121.018 416.838 121.018C414.05 121.018 411.535 121.647 409.294 122.904C407.107 124.161 405.358 125.965 404.046 128.316C402.788 130.612 402.16 133.263 402.16 136.27C402.16 139.277 402.788 141.955 404.046 144.306C405.358 146.602 407.107 148.406 409.294 149.718C411.535 150.975 414.05 151.604 416.838 151.604ZM473.481 114.13C479.002 114.13 483.375 115.743 486.601 118.968C489.881 122.139 491.521 126.813 491.521 132.99V158H483.649V133.892C483.649 129.683 482.637 126.512 480.615 124.38C478.592 122.248 475.695 121.182 471.923 121.182C467.659 121.182 464.297 122.439 461.837 124.954C459.377 127.414 458.147 130.967 458.147 135.614V158H450.275V114.54H457.819V121.1C459.404 118.859 461.536 117.137 464.215 115.934C466.948 114.731 470.037 114.13 473.481 114.13ZM518.553 158.492C515 158.492 511.583 158.027 508.303 157.098C505.023 156.114 502.454 154.884 500.595 153.408L503.875 147.176C505.788 148.543 508.112 149.636 510.845 150.456C513.578 151.276 516.339 151.686 519.127 151.686C526.015 151.686 529.459 149.718 529.459 145.782C529.459 144.47 528.994 143.431 528.065 142.666C527.136 141.901 525.96 141.354 524.539 141.026C523.172 140.643 521.204 140.233 518.635 139.796C515.136 139.249 512.266 138.621 510.025 137.91C507.838 137.199 505.952 135.997 504.367 134.302C502.782 132.607 501.989 130.229 501.989 127.168C501.989 123.232 503.629 120.089 506.909 117.738C510.189 115.333 514.59 114.13 520.111 114.13C523.008 114.13 525.906 114.485 528.803 115.196C531.7 115.907 534.078 116.863 535.937 118.066L532.575 124.298C529.022 122.002 524.84 120.854 520.029 120.854C516.694 120.854 514.152 121.401 512.403 122.494C510.654 123.587 509.779 125.036 509.779 126.84C509.779 128.261 510.271 129.382 511.255 130.202C512.239 131.022 513.442 131.623 514.863 132.006C516.339 132.389 518.389 132.826 521.013 133.318C524.512 133.919 527.327 134.575 529.459 135.286C531.646 135.942 533.504 137.09 535.035 138.73C536.566 140.37 537.331 142.666 537.331 145.618C537.331 149.554 535.636 152.697 532.247 155.048C528.912 157.344 524.348 158.492 518.553 158.492ZM586.447 136.516C586.447 137.117 586.392 137.91 586.283 138.894H551.023C551.515 142.721 553.182 145.809 556.025 148.16C558.922 150.456 562.503 151.604 566.767 151.604C571.96 151.604 576.142 149.855 579.313 146.356L583.659 151.44C581.691 153.736 579.231 155.485 576.279 156.688C573.382 157.891 570.129 158.492 566.521 158.492C561.929 158.492 557.856 157.563 554.303 155.704C550.75 153.791 547.989 151.139 546.021 147.75C544.108 144.361 543.151 140.534 543.151 136.27C543.151 132.061 544.08 128.261 545.939 124.872C547.852 121.483 550.449 118.859 553.729 117C557.064 115.087 560.808 114.13 564.963 114.13C569.118 114.13 572.808 115.087 576.033 117C579.313 118.859 581.855 121.483 583.659 124.872C585.518 128.261 586.447 132.143 586.447 136.516ZM564.963 120.772C561.191 120.772 558.02 121.92 555.451 124.216C552.936 126.512 551.46 129.519 551.023 133.236H578.903C578.466 129.573 576.962 126.594 574.393 124.298C571.878 121.947 568.735 120.772 564.963 120.772Z" fill="#272560"/>
</svg>
